<svg xmlns="http://www.w3.org/2000/svg" viewBox="0 0 692.45 692.11"><title>Asset 1</title><g id="e4dfe50f-4cf1-4883-814d-d4305a5a68e1" data-name="Layer 2"><g id="f1e39a02-4ae2-43fa-8d03-872e479fbde5" data-name="Layer 1"><g id="ff6025d4-a055-40a9-bf96-e016f29a2305" data-name="rJ54Xv.tif"><path d="M605.25,529.32c-11,18.49-24.39,34.15-39.33,48.57s-31.32,27-47.6,39.74c1.85.09,3.17-1,4.43-1.86,16.37-11.66,34.63-20.1,51.75-30.47,6.32-3.83,12.69-7.61,18.41-12.29,3.66-3,6.3-7,9.22-10.78a58,58,0,0,0,10.22-19,3.76,3.76,0,0,1,.2-.46c7.77-16.06,14.43-32.62,22.05-48.76,7.32-15.51,12.57-31.84,17.43-48.27,1.7-5.75,4.26-11.23,5.64-17,3-12.75,7.84-25,9.55-38.16,1.41-10.8,2.09-21.69,3.95-32.43.11-.64,0-1.35.68-2,1,1.36.53,2.87.5,4.26a227,227,0,0,1-12.25,69.71c-7,20.17-13.74,40.43-22,60.16-3.28,7.89-6.68,15.72-10.67,23.28-1.1,2.1-1.26,4.48-2.14,6.59-3.72,8.87-7.3,17.8-11.44,26.49a135.67,135.67,0,0,1-13.68,22.52,73.37,73.37,0,0,1-18.68,17.08,433.49,433.49,0,0,1-51.14,29.77c-5.94,2.87-11.3,6.94-16.91,10.48-11.39,7.18-23.1,13.76-35,20.08-12.65,6.73-25.55,12.93-39.07,17.6-10.66,3.69-21.21,7.9-32.36,10-14.78,2.75-29.53,5.56-44.64,6.32a330.34,330.34,0,0,1-66.95-3.63c-20.49-3.15-40.21-9.14-59.66-16.11-20.15-7.23-39.15-17-58.29-26.49C169,630.07,161.66,624,153.85,618.7a74.14,74.14,0,0,1-18-17.69,57.62,57.62,0,0,0-11-11.52c-7.76-6-13.79-13.47-19.88-21-5.56-6.91-11.7-13.37-17.27-20.3-10-12.45-18.34-26-26-40a320.65,320.65,0,0,1-23.62-55.39C33.89,439.93,30.23,427,26.8,414c-1.92-7.31-2.95-14.86-4.4-22.29a5.68,5.68,0,0,0-.9-3c-.94.91-.59,2-.66,3-.72,11.32.9,22.4,3.18,33.45,2.73,13.27,4.88,26.68,8.42,39.78A172.12,172.12,0,0,0,42.63,492.8c1.93,4.13,3.59,8.39,5.22,12.62,3.94,10.26,10,19.08,16.94,27.45,1.92,2.33,4.26,4.43,4.74,8.11a58.76,58.76,0,0,1-6.16-7.51c-7.74-10.53-15.51-21.09-19.84-33.58-3.81-11-8.62-21.62-12.32-32.66a137.92,137.92,0,0,1-5.75-23.66c-1.66-11.19-4.07-22.27-6.05-33.41-.8-4.5-1.53-9-1.94-13.59-2.48-27.64-3.18-55.27.11-82.92,1.9-16,3.56-31.95,8.14-47.43,1.38-4.67,2.25-9.53,4.94-13.79.93-1.47.89-3.52,1.42-5.26,1.36-4.54,3-9,4.16-13.6,3.12-11.81,9.18-22.36,14.11-33.39a279.92,279.92,0,0,1,17.18-32c.74-1.21.11-.82-.43-1.61-1.19-1.73-1.76-1-2.6,0s-2.18,2-2.49,3.38c-.85,3.89-3.49,6.43-6.39,8.81a8.27,8.27,0,0,0-1.41,1.36c-9,12.17-15.73,25.6-21.64,39.46-5.15,12.08-9.62,24.44-14.25,36.75a11,11,0,0,1,1.17-4.76C25,237.5,29,222.86,35.67,209.22c5.6-11.44,11.81-22.54,18.45-33.41.54-.88,2.11-2.09,1-2.93s-2.18.74-3,1.61c-4,4.4-6.63,9.73-9.45,14.91A291.41,291.41,0,0,0,28,221a4.06,4.06,0,0,1-1.38,2.2,7.25,7.25,0,0,1,.53-3.94A142,142,0,0,1,40,191.55c5.57-9,10.35-18.59,16.11-27.55a293,293,0,0,1,38.74-48.64c.59-.58,1.21-1.13,1.83-1.68.1-.09.28-.09.56-.17-.94,1.33-1.82,2.57-2.68,3.83-.08.11,0,.31,0,.46s.38.14.41.1c3.32-4.83,8.73-7.26,13-11,3.5-3.11,7.64-5.65,10.81-9.14,7.4-8.16,17.39-12.94,25.47-20.2,10.55-9.49,23-16.2,35-23.62A149.76,149.76,0,0,1,207,40.71c7.07-2.57,13.86-6,21-8.52,28.12-9.8,56.6-18,86.41-20.8,22.56-2.12,45-1.28,67.57.62,15.55,1.31,30.8,4.56,46.32,5.66,7.12.51,14.23,1.6,21.41,1.34,1.76-.07,3.15,1.45,5,1-5.64-3.06-12.13-4-17.68-7.34,4.5,1.37,9,2.65,13.5,4.11,8.68,2.84,17.32,5.64,25.51,10,6,3.14,12.72,4.82,19,7.5a243.44,243.44,0,0,1,46,25.77,209.64,209.64,0,0,1,18.08,14.49c4.64,4.15,9.67,7.84,14.43,11.86,17.79,15,33.06,32.44,47.84,50.33a12.11,12.11,0,0,0,4.35,3.63,6.28,6.28,0,0,1,2.54,2.33A79.34,79.34,0,0,1,634.77,153c2.79,5.73,7.1,10.43,10.56,15.7a344.13,344.13,0,0,1,17.85,29.95c.86,1.65,1.41,3.56,3.56,4.25,1,.3.76,1.44.64,2.22a7.61,7.61,0,0,0,1.19,4.95,53.37,53.37,0,0,1,5.13,13.44c1.15,5.15,3.7,9.94,5.34,15,5.57,17.25,8.89,35,11.74,52.84a200.94,200.94,0,0,1,2.73,22.54c.23,4.93.25,9.84-1,14.65a31.25,31.25,0,0,0-.79,9.14c0,.71.5,2.15-.55,2s-2.58-.4-2.62-2.12c0-1.41-.13-2.83-.11-4.24a9.13,9.13,0,0,0-3.11-7.36c-3-2.61-4.39-6-5.28-9.7-1.68-6.91-3.2-13.85-5.3-20.74.09,1.18.07,2.37.27,3.53,1.36,7.65-.46,15.15-1,22.72-.12,1.74-.46,3.46-.73,5.19-.12.81-.13,1.78-1.14,2s-1.65-.57-2.19-1.32a23.54,23.54,0,0,1-4-10.88,34.14,34.14,0,0,0-2.64-9.34c-1.26-2.78-2.69-3.17-5-1.26-1.88,1.55-4.37,2.39-4.93,5.46-.35,1.91-1.73.7-2.45-.28A29.2,29.2,0,0,1,646,299q-2.89-15.31-5.8-30.63a4.88,4.88,0,0,1-.18-2.22c1-3.22,0-6.22-.79-9.26a2.89,2.89,0,0,1-.09-1.48c1.88-5.95.48-11.94,0-17.85-.42-5-2.9-9.5-4.81-14.1a225.52,225.52,0,0,0-37.51-60.31c-7.88-9.2-15.38-18.76-24-27.29-10.22-10.11-21.08-19.53-32.16-28.69-4.55-3.76-8.92-7.72-13.76-11.11C513.67,86.75,499.86,78.3,486,70c-14.83-8.91-30.86-15.11-47.6-19.51-8.13-2.14-16.24-4.37-24.57-5.5-21.93-3-43.85-6.11-66.1-3.32-6.59.83-13.3.61-19.93,1.2-6.21.56-12.43,1.25-18.56,2.41-17.29,3.28-34.52,6.9-51.65,11C241.83,60,226.4,64.49,211.75,71.41a277.61,277.61,0,0,0-30.56,16.85c-11.43,7.26-22.59,14.93-33.54,22.87-7.25,5.27-13.57,11.71-20.37,17.55-7.81,6.71-13.84,15-20.3,22.87Q97,163.7,87.72,176.35c-4.6,6.22-7.82,13.31-11.75,20A302,302,0,0,0,53,245a298.56,298.56,0,0,0-11.76,39.67,308.09,308.09,0,0,0-6,36.69,298,298,0,0,0-.75,45.9c.91,15.37,4.45,30.26,7.11,45.32a180.74,180.74,0,0,0,8.21,31c10.4,28.18,21.57,56,36.63,82.1,2.62,4.53,5.58,8.86,8.39,13.28,14.73,23.18,33.63,42.48,55.27,59.2,9.7,7.5,20.53,13.2,31.1,19.33,20.85,12.1,43.28,20.32,66.13,27.59a467.35,467.35,0,0,0,48.51,12.56,177.24,177.24,0,0,0,32.19,3.74c14.65.24,29.29.8,43.95.23,8.7-.34,17.19-1.79,25.74-3.12,6-.92,11.93-2.2,18-2.46,1.92-.08,3.75-1.08,5.75,0,.88.47.16-1,1.25-1.44,4.63-1.8,9.5-2.38,14.27-3.37,5.63-1.17,11.11-2.84,16.66-4.27,12.13-3.14,23.43-8.36,34.77-13.48,14.5-6.55,27.29-15.81,39.74-25.58,13-10.15,25.71-20.54,37.43-32.15,13.54-13.42,26.12-27.65,36.86-43.45A7.67,7.67,0,0,1,605.25,529.32ZM53.59,217.09c-1.23,2.83-2.39,5.39-3.47,8-5.24,12.57-11.76,24.66-14.64,38.11-1.15,5.37-3.49,10.43-3.85,16-.4,6.15-.73,12.29-.86,18.46-.37,17.5-2.53,34.84-5,52.15-1,7.33-2.3,14.62-1.25,22.09.88,6.26,1.4,12.57,2.13,18.85.57,5,.91,10,1.88,14.85,1.34,6.68,3.31,13.23,4.78,19.89,4,17.82,9.07,35.37,16.34,52,11.47,26.32,24.62,51.77,43.44,73.93,11.53,13.57,22.44,27.65,35.94,39.41,1.62,1.41,3,3.26,5.07,3.93a41.88,41.88,0,0,1,8.29,4c2.55,1.48,4.91,3.31,7.85,4.46-.22-1.06-.93-1.36-1.49-1.79a318.38,318.38,0,0,1-27.52-24.24c-3.8-3.73-7.86-7.24-11.09-11.48-4.89-6.4-9.91-12.67-14.43-19.39-5.39-8-10.89-15.9-15.29-24.51-3.49-6.81-8-13.1-11-20.16C64,488.46,58.65,475.18,53.43,461.86c-4.94-12.64-8.35-25.75-11.85-38.86-5.14-19.23-7.88-38.77-9.61-58.51-.72-8.23.31-16.47.43-24.7a246.93,246.93,0,0,1,4.87-46.12c5-24.58,11.85-48.64,22.12-71.62.32-.7,1.07-1.46.41-2.65-.54.68-.95,1.18-1.33,1.69s-.68,1.58-1.45,1.55c-.93,0-.74-1.14-1.06-1.77C55.33,219.64,55.08,218.17,53.59,217.09ZM479.51,639.15a4.57,4.57,0,0,0-.91.17c-7.18,2.86-14.35,5.75-21.53,8.6-16.82,6.68-33.44,13.83-51.64,16.37a425.78,425.78,0,0,1-47.95,4c-10.9.27-21.77-1-32.68-1a78.16,78.16,0,0,1-11.9-1.2c-8.22-1.27-16.39-2.81-24.6-4.11a219.73,219.73,0,0,1-34.15-8.13,238.08,238.08,0,0,1-32.5-13.24c-10.82-5.43-22.34-9.5-32.84-15.61-7.81-4.53-16.48-7.57-23.47-13.51a1.54,1.54,0,0,0-.64-.37c-.63-.13-1.39-.43-1.78.32s.29,1.1.74,1.42c2,1.38,4.09,2.56,6,4.08,11.74,9.61,25.27,16.32,38.69,23,28,14,57.7,23.19,88.41,29.1,5.64,1.09,11.25,2.44,16.94,3,10.1,1,20.23,1.49,30.36,2,19.72,1,39.22-.46,58.38-5.55,8.19-2.18,16.58-3.64,24.57-6.49,14.39-5.13,28.63-10.66,42.47-17.14C472.91,643.21,476.5,641.74,479.51,639.15ZM452.64,33.4c1.86,2,3.72,2.2,5.38,2.84C502.3,53.13,541.86,78,578.56,107.67c8.4,6.78,16.63,13.87,22.36,23.31a17.86,17.86,0,0,0,4.93,5.24c.49-1.16-.14-1.83-.52-2.52a60.52,60.52,0,0,0-7.43-10.91c-17.11-19.83-36.72-36.92-58-52.11-8-5.7-17-9.78-25.56-14.56-13.59-7.59-27.46-14.62-42.13-19.92-1.13-.4-2.25-1.36-3.54-.77-1.66.75-3.25.35-4.89,0A105.5,105.5,0,0,0,452.64,33.4ZM227.25,51.47c3.77-1.47,7.21-2.85,10.67-4.15,7.17-2.68,14.74-4.07,21.87-6.91s15-3.88,22.47-5.69c9.71-2.34,19.39-5,29.41-5.47a511.53,511.53,0,0,1,77.29,2c1.74.18,3.52.62,5.32-.07a29.39,29.39,0,0,0-5.11-1.47A238.9,238.9,0,0,0,361.48,26a284.81,284.81,0,0,0-57.05,1.54c-12.22,1.55-24.29,4-36.31,6.64-13.24,2.94-25.91,7.29-37.48,14.49C229.5,49.37,228.14,49.85,227.25,51.47Zm262.22-13c1.34,2,3.37,2.69,5.26,3.62,14.55,7.16,29.16,14.15,42,24.24a174.93,174.93,0,0,0,18.37,13.14c6,3.56,11.35,8.13,17,12.21,1.75,1.26,3.58,2.41,5.39,3.59.48.32,1.07.79,1.56.25s-.19-1.05-.55-1.42c-1-1-2-2-3-2.94-6.3-5.81-13.16-11-19.47-16.77-12.27-11.28-26-20.52-41.53-26.65-5.93-2.33-12-4.21-17.89-6.78C494.32,39.94,491.86,39.28,489.47,38.46ZM97.8,145.51c.14,0,.35.07.43,0a13.26,13.26,0,0,0,1-1.08,246.84,246.84,0,0,1,20.65-21.9c5.81-5.36,11.31-11,17.78-15.62,1-.72,1.77-2,3.4-1.54.62.18.87-.47.78-1-.18-1.06.6-1.47,1.21-2C149.44,96.88,155.86,91.47,163,87a24.28,24.28,0,0,0,2.55-2c.32-.26.62-.65.28-1.06s-.78-.24-1.13,0c-1.54,1-3,2-4.58,3-8.45,5.39-17.27,10.08-24.92,16.85-8.71,7.72-17.32,15.54-25.64,23.66a155.84,155.84,0,0,0-22,26.75c-.56.87-1.68,1.65-1.05,3.48,3.88-3.9,7.93-7.16,9.51-12.46.3-1,.71-2.87,1.92-2.48s-.64,1.57-.35,2.52A1,1,0,0,0,97.8,145.51ZM615,164.22c-.87-3.08-1.48-5.65-3.33-7.81-2.16-2.52-4.19-5.16-6.22-7.78-4.72-6.1-9-12.61-14.47-18-6.58-6.52-13.82-12.37-20.8-18.47-1.75-1.52-3.62-2.91-5.46-4.32-.51-.38-1.28-.92-1.74-.28s.09,1.23.68,1.66a12.14,12.14,0,0,1,.94.81c6.81,5.92,13.9,11.53,20.37,17.83,10.41,10.11,19,21.71,27,33.76A5,5,0,0,0,615,164.22Zm23.59,34.87c0-.23,0-.67-.2-.85-1.91-1.81-2.13-4.47-3.41-6.61-3-5-5.19-10.4-8.47-15.23-.31-.47-.47-1.19-1.25-.8a1.13,1.13,0,0,0-.51,1.52c.48,1.23,1,2.47,1.55,3.66,3,6,6.53,11.72,9.14,17.92a3,3,0,0,0,1.19,1.56c.42.26.82.65,1.35.44C638.73,200.42,638.54,199.75,638.63,199.09Zm17.25,30.77c-.51.49-.29,1-.09,1.42,2.9,6.54,4.72,13.46,7.1,20.18.34.95.56,2.64,1.8,2.3s.53-1.92.33-2.88a66.65,66.65,0,0,0-6.76-18.37C657.7,231.48,657.21,230.25,655.88,229.86Zm-50.3-85.21a32.08,32.08,0,0,0,7.5,9.65A31.65,31.65,0,0,0,605.58,144.65Zm65.91,160.68c-.62-.88.31-2.88-1.1-3s-1.36,1.78-1.5,2.9a1.7,1.7,0,0,0,1.44,2C671.56,307.36,671.39,306.26,671.49,305.33ZM80.59,164.91a9.33,9.33,0,0,0,3.63-3.61c.32-.51.54-1.17-.06-1.54-.43-.26-1,.11-1.28.52A9.52,9.52,0,0,0,80.59,164.91Z" transform="translate(-1.18 -1.49)"/><path d="M58,539.33c-4.21-3.89-7.29-8.58-10.2-13.42-5.66-9.42-9.94-19.52-14.8-29.34a317,317,0,0,1-17.14-43.29C6.75,425.15.74,396.53,1.61,366.74c.19-6.8-.27-13.63-.41-20.44A3.52,3.52,0,0,1,2,343.4c.21,8.49,0,17,.61,25.44.62,8.64.95,17.28,1.91,25.9s3.06,16.86,5,25.2,4.06,16.82,6.48,25.14,5.09,16.53,8,24.67,6.16,16.17,9.64,24.09,7.37,15.48,11.51,23S53.7,531.83,58,539.33Z" transform="translate(-1.18 -1.49)"/><path d="M42.42,504.86c2,.3,2.42,1.48,3,2.45,3.49,6,6.1,12.48,9.44,18.59A300.94,300.94,0,0,0,90.66,578a386,386,0,0,0,45.65,44.49,8.35,8.35,0,0,1,2,2.16c-23-17-44-36.06-60.95-59.35C63.67,546.45,53,526,42.42,504.86Z" transform="translate(-1.18 -1.49)"/><path d="M605.7,113.66A9.66,9.66,0,0,1,611,117a360.47,360.47,0,0,1,38.36,48.86c3.15,4.78,6.12,9.67,9.31,14.42,1,1.54.36,3.23,1,4.79a66.32,66.32,0,0,1,3.26,9.68c-2.51-4.77-4.12-9.91-7.53-14.3s-5.59-9.59-8.5-14.32-6-9.39-9.17-13.95-6.42-8.89-9.84-13.18-7.18-8.51-10.77-12.76S609.11,118.65,605.7,113.66Z" transform="translate(-1.18 -1.49)"/><path d="M362.52,1.55a313.32,313.32,0,0,1,35.6,1.64C410,4.3,421.49,7.47,432.73,11.5c-11.61-2.37-23-6.26-34.82-7.06S374.3,2.79,362.52,1.55Z" transform="translate(-1.18 -1.49)"/><path d="M365.12,49.76c13.09-.8,25.55-.94,37.49,3.93-4.34.42-8.49-.7-12.65-1.62a21,21,0,0,0-4.16-.58c-5.89-.11-11.8.08-17.68-.53A4,4,0,0,1,365.12,49.76Z" transform="translate(-1.18 -1.49)"/><path d="M283.15,8.84a115.36,115.36,0,0,1,47.32-7.17c-8.38.77-16.3,1.27-24.13,2.6S290.84,7.12,283.15,8.84Z" transform="translate(-1.18 -1.49)"/><path d="M432.24,683.89a13.75,13.75,0,0,1,7.19-2.4c2.51,0,4.52-1.49,6.77-2.27,5-1.72,10-3.53,15-5.3.56-.2,1.31-.48,1.48.23.23.9-.69.65-1.19.75-5.65,1.12-10.87,3.43-16.07,5.77a41.24,41.24,0,0,1-7.42,2C436.13,683.18,434.17,683.51,432.24,683.89Z" transform="translate(-1.18 -1.49)"/><path d="M135.51,615.85c-2.95-.71-13.82-10-15.9-13.73Z" transform="translate(-1.18 -1.49)"/><path d="M400.07,690.9l26.17-6,.17.72-26.18,6Z" transform="translate(-1.18 -1.49)"/><path d="M396.48,692.09A41.66,41.66,0,0,1,387,693.6,13,13,0,0,1,396.48,692.09Z" transform="translate(-1.18 -1.49)"/></g></g></g></svg>