<svg id="ac7f1e3f-7be3-49ab-be7a-cdd7ac2ede13" data-name="Layer 1" xmlns="http://www.w3.org/2000/svg" viewBox="0 0 692.48 692.13"><defs><style>.bd5ce0a1-dfb8-4dca-bed3-0d118247112a{fill:#048157;}</style></defs><title>background-circle-green</title><g id="f39f6b15-52bd-41e6-a919-1d99b9511d7a" data-name="e4dfe50f-4cf1-4883-814d-d4305a5a68e1"><g id="ede31f79-e681-466b-806d-dbd5148a69b0" data-name="f1e39a02-4ae2-43fa-8d03-872e479fbde5"><g id="a733249c-dbeb-4172-b581-4a0631109bea" data-name="ff6025d4-a055-40a9-bf96-e016f29a2305"><path class="bd5ce0a1-dfb8-4dca-bed3-0d118247112a" d="M604.07,527.83c-11,18.49-24.39,34.15-39.33,48.57s-31.32,27-47.6,39.74c1.85.09,3.17-1,4.43-1.86,16.37-11.66,34.63-20.1,51.75-30.47,6.32-3.83,12.69-7.61,18.41-12.29,3.66-3,6.3-7,9.22-10.78a58.11,58.11,0,0,0,10.22-19,3.76,3.76,0,0,1,.2-.46c7.77-16.06,14.43-32.62,22-48.76,7.32-15.51,12.57-31.84,17.43-48.27,1.7-5.75,4.26-11.23,5.64-17,3-12.75,7.84-25,9.55-38.16,1.41-10.8,2.09-21.69,4-32.43.11-.64,0-1.35.68-2,1,1.36.53,2.87.5,4.26a227,227,0,0,1-12.25,69.71c-7,20.17-13.74,40.43-22,60.16-3.28,7.89-6.68,15.72-10.67,23.28-1.1,2.1-1.26,4.48-2.14,6.59-3.72,8.87-7.3,17.8-11.44,26.49A135.67,135.67,0,0,1,599,567.67a73.43,73.43,0,0,1-18.68,17.08,434,434,0,0,1-51.14,29.77c-5.94,2.87-11.3,6.94-16.91,10.48-11.39,7.18-23.1,13.76-35,20.08-12.65,6.73-25.55,12.93-39.07,17.6-10.66,3.69-21.21,7.9-32.36,10-14.78,2.75-29.53,5.56-44.64,6.32a330.46,330.46,0,0,1-66.95-3.63c-20.49-3.15-40.21-9.14-59.66-16.11-20.15-7.23-39.15-17-58.29-26.49-8.47-4.19-15.81-10.26-23.62-15.56a74,74,0,0,1-18-17.69,57.77,57.77,0,0,0-11-11.52c-7.76-6-13.79-13.47-19.88-21-5.56-6.91-11.7-13.37-17.27-20.3-10-12.45-18.34-26-26-40A321.1,321.1,0,0,1,36.9,451.31c-4.19-12.87-7.85-25.8-11.28-38.8-1.92-7.31-2.95-14.86-4.4-22.29a5.64,5.64,0,0,0-.9-3c-.94.91-.59,2-.66,3-.72,11.32.9,22.4,3.18,33.45,2.73,13.27,4.88,26.68,8.42,39.78a172.68,172.68,0,0,0,10.19,27.86c1.93,4.13,3.59,8.39,5.22,12.62,3.94,10.26,10,19.08,16.94,27.45,1.92,2.33,4.26,4.43,4.74,8.11A58.3,58.3,0,0,1,62.19,532c-7.74-10.53-15.51-21.09-19.84-33.58-3.81-11-8.62-21.62-12.32-32.66a138.37,138.37,0,0,1-5.75-23.66c-1.66-11.19-4.07-22.27-6.05-33.41-.8-4.5-1.53-9-1.94-13.59-2.48-27.64-3.18-55.27.11-82.92,1.9-16,3.56-32,8.14-47.43,1.38-4.67,2.25-9.53,4.94-13.79.93-1.47.89-3.52,1.42-5.26,1.36-4.54,3-9,4.16-13.6,3.12-11.81,9.18-22.36,14.11-33.39a280.26,280.26,0,0,1,17.18-32c.74-1.21.11-.82-.43-1.61-1.19-1.73-1.76-1-2.6,0s-2.18,2-2.49,3.38c-.85,3.89-3.49,6.43-6.39,8.81A8.25,8.25,0,0,0,53,178.63c-9,12.17-15.73,25.6-21.64,39.46-5.15,12.08-9.62,24.44-14.25,36.75a11.11,11.11,0,0,1,1.17-4.76c5.51-14.07,9.51-28.71,16.18-42.35,5.6-11.44,11.81-22.54,18.45-33.41.54-.88,2.11-2.09,1-2.93s-2.18.74-3,1.61c-4,4.4-6.63,9.73-9.45,14.91a291.06,291.06,0,0,0-14.67,31.6,4.08,4.08,0,0,1-1.38,2.2,7.29,7.29,0,0,1,.53-3.94,141.68,141.68,0,0,1,12.85-27.71c5.57-9,10.35-18.59,16.11-27.55a293,293,0,0,1,38.74-48.64c.59-.58,1.21-1.13,1.83-1.68.1-.09.28-.09.56-.17-.94,1.33-1.82,2.57-2.68,3.83-.08.11,0,.31,0,.46s.38.14.41.1c3.32-4.83,8.73-7.26,13-11,3.5-3.11,7.64-5.65,10.81-9.14,7.4-8.16,17.39-12.94,25.47-20.2,10.55-9.49,23-16.2,35-23.62a149.93,149.93,0,0,1,27.75-13.23c7.07-2.57,13.86-6,21-8.52,28.12-9.8,56.6-18,86.41-20.8,22.56-2.12,45-1.28,67.57.62,15.55,1.31,30.8,4.56,46.32,5.66,7.12.51,14.23,1.6,21.41,1.34,1.76-.07,3.15,1.45,5,1-5.64-3.06-12.13-4-17.68-7.34,4.5,1.37,9,2.65,13.5,4.11,8.68,2.84,17.32,5.64,25.51,10,6,3.14,12.72,4.82,19,7.5a243.67,243.67,0,0,1,46,25.77,208.12,208.12,0,0,1,18.08,14.49c4.64,4.15,9.67,7.84,14.43,11.86,17.79,15,33.06,32.44,47.84,50.33a12,12,0,0,0,4.35,3.63,6.2,6.2,0,0,1,2.54,2.33,80.44,80.44,0,0,1,6.49,10.31c2.79,5.73,7.1,10.43,10.56,15.7A345.14,345.14,0,0,1,662,197.16c.86,1.65,1.41,3.56,3.56,4.25,1,.3.76,1.44.64,2.22a7.64,7.64,0,0,0,1.19,5A53.53,53.53,0,0,1,672.52,222c1.15,5.15,3.7,9.94,5.34,15,5.57,17.25,8.89,35,11.74,52.84a200.94,200.94,0,0,1,2.73,22.54c.23,4.93.25,9.84-1,14.65a31.22,31.22,0,0,0-.79,9.14c0,.71.5,2.15-.55,2s-2.58-.4-2.62-2.12c0-1.41-.13-2.83-.11-4.24a9.14,9.14,0,0,0-3.11-7.36c-3-2.61-4.39-6-5.28-9.7-1.68-6.91-3.2-13.85-5.3-20.74.09,1.18.07,2.37.27,3.53,1.36,7.65-.46,15.15-1,22.72-.12,1.74-.46,3.46-.73,5.19-.12.81-.13,1.78-1.14,2s-1.65-.57-2.19-1.32a23.61,23.61,0,0,1-4-10.88,34.14,34.14,0,0,0-2.64-9.34c-1.26-2.78-2.69-3.17-5-1.26-1.88,1.55-4.37,2.39-4.93,5.46-.35,1.91-1.73.7-2.45-.28a29.29,29.29,0,0,1-4.94-12.34q-2.9-15.31-5.8-30.63a4.92,4.92,0,0,1-.18-2.22c1-3.22,0-6.22-.79-9.26a2.87,2.87,0,0,1-.09-1.48c1.88-5.95.48-11.94,0-17.85-.42-5-2.9-9.5-4.81-14.1a225.58,225.58,0,0,0-37.51-60.31c-7.88-9.2-15.38-18.76-24-27.29-10.22-10.11-21.08-19.53-32.16-28.69-4.55-3.76-8.92-7.72-13.76-11.11-13.23-9.31-27-17.76-40.9-26.06C470,59.6,454,53.4,437.22,49c-8.13-2.14-16.24-4.37-24.57-5.5-21.93-3-43.85-6.11-66.1-3.32-6.59.83-13.3.61-19.93,1.2-6.21.56-12.43,1.25-18.56,2.41-17.29,3.28-34.52,6.9-51.65,11-15.76,3.72-31.19,8.21-45.84,15.13A277.61,277.61,0,0,0,180,86.77c-11.43,7.26-22.59,14.93-33.54,22.87-7.25,5.27-13.57,11.71-20.37,17.55-7.81,6.71-13.84,15-20.3,22.87q-10,12.15-19.26,24.8c-4.6,6.22-7.82,13.31-11.75,20a311.5,311.5,0,0,0-34.73,88.32,307.56,307.56,0,0,0-6,36.69,298.05,298.05,0,0,0-.75,45.9c.91,15.37,4.45,30.26,7.11,45.32a180.39,180.39,0,0,0,8.21,31c10.4,28.18,21.57,56,36.63,82.1,2.62,4.53,5.58,8.86,8.39,13.28,14.73,23.18,33.63,42.48,55.27,59.2,9.7,7.5,20.53,13.2,31.1,19.33,20.85,12.1,43.28,20.32,66.13,27.59a468.56,468.56,0,0,0,48.51,12.56,176.87,176.87,0,0,0,32.19,3.74c14.65.24,29.29.8,43.95.23,8.7-.34,17.19-1.79,25.74-3.12,6-.92,11.93-2.2,18-2.46,1.92-.08,3.75-1.08,5.75,0,.88.47.16-1,1.25-1.44,4.63-1.8,9.5-2.38,14.27-3.37,5.63-1.17,11.11-2.84,16.66-4.27,12.13-3.14,23.43-8.36,34.77-13.48,14.5-6.55,27.29-15.81,39.74-25.58,13-10.15,25.71-20.54,37.43-32.15,13.54-13.42,26.12-27.65,36.86-43.45A7.76,7.76,0,0,1,604.07,527.83ZM52.41,215.6c-1.23,2.83-2.39,5.39-3.47,8-5.24,12.57-11.76,24.66-14.64,38.11-1.15,5.37-3.49,10.43-3.85,16-.4,6.15-.73,12.29-.86,18.46-.37,17.5-2.53,34.84-5,52.15-1,7.33-2.3,14.62-1.25,22.09.88,6.26,1.4,12.57,2.13,18.85.57,5,.91,10,1.88,14.85,1.34,6.68,3.31,13.23,4.78,19.89,4,17.82,9.07,35.37,16.34,52,11.47,26.32,24.62,51.77,43.44,73.93,11.53,13.57,22.44,27.65,35.94,39.41,1.62,1.41,3,3.26,5.07,3.93a41.94,41.94,0,0,1,8.29,4c2.55,1.48,4.91,3.31,7.85,4.46-.22-1.06-.93-1.36-1.49-1.79a318.18,318.18,0,0,1-27.52-24.24c-3.8-3.73-7.86-7.24-11.09-11.48-4.89-6.4-9.91-12.67-14.43-19.39-5.39-8-10.89-15.9-15.29-24.51-3.49-6.81-8-13.1-11-20.16q-8.13-19.79-16-39.79c-4.94-12.64-8.35-25.75-11.85-38.86-5.14-19.23-7.88-38.77-9.61-58.51-.72-8.23.31-16.47.43-24.7a246.45,246.45,0,0,1,4.87-46.12c5-24.58,11.85-48.64,22.12-71.62.32-.7,1.07-1.46.41-2.65-.54.68-.95,1.18-1.33,1.69s-.68,1.58-1.45,1.55c-.93,0-.74-1.14-1.06-1.77C54.15,218.15,53.9,216.68,52.41,215.6ZM478.33,637.66a4.71,4.71,0,0,0-.91.17c-7.18,2.86-14.35,5.75-21.53,8.6-16.82,6.68-33.44,13.83-51.64,16.37a425.26,425.26,0,0,1-47.95,4c-10.9.27-21.77-1-32.68-1a79.19,79.19,0,0,1-11.9-1.2c-8.22-1.27-16.39-2.81-24.6-4.11A218.87,218.87,0,0,1,253,652.36a238,238,0,0,1-32.5-13.24c-10.82-5.43-22.34-9.5-32.84-15.61-7.81-4.53-16.48-7.57-23.47-13.51a1.58,1.58,0,0,0-.64-.37c-.63-.13-1.39-.43-1.78.32s.29,1.1.74,1.42c2,1.38,4.09,2.56,6,4.08,11.74,9.61,25.27,16.32,38.69,23,28,14,57.7,23.19,88.41,29.1,5.64,1.09,11.25,2.44,16.94,3,10.1,1,20.23,1.49,30.36,2,19.72,1,39.22-.46,58.38-5.55,8.19-2.18,16.58-3.64,24.57-6.49,14.39-5.13,28.63-10.66,42.47-17.14C471.73,641.72,475.32,640.25,478.33,637.66ZM451.46,31.91c1.86,2,3.72,2.2,5.38,2.84,44.28,16.89,83.84,41.76,120.54,71.43,8.4,6.78,16.63,13.87,22.36,23.31a17.86,17.86,0,0,0,4.93,5.24c.49-1.16-.14-1.83-.52-2.52a60,60,0,0,0-7.43-10.91c-17.11-19.83-36.72-36.92-58-52.11-8-5.7-17-9.78-25.56-14.56C499.57,47,485.7,40,471,34.71c-1.13-.4-2.25-1.36-3.54-.77-1.66.75-3.25.35-4.89,0A104.87,104.87,0,0,0,451.46,31.91ZM226.07,50c3.77-1.47,7.21-2.85,10.67-4.15,7.17-2.68,14.74-4.07,21.87-6.91s15-3.88,22.47-5.69c9.71-2.34,19.39-5,29.41-5.47a511.48,511.48,0,0,1,77.29,2c1.74.18,3.52.62,5.32-.07A29.51,29.51,0,0,0,388,28.22a239.1,239.1,0,0,0-27.69-3.71,284.83,284.83,0,0,0-57.05,1.54c-12.22,1.55-24.29,4-36.31,6.64C253.7,35.63,241,40,229.46,47.18,228.32,47.88,227,48.36,226.07,50ZM488.29,37c1.34,2,3.37,2.69,5.26,3.62,14.55,7.16,29.16,14.15,42,24.24A174.73,174.73,0,0,0,553.92,78c6,3.56,11.35,8.13,17,12.21,1.75,1.26,3.58,2.41,5.39,3.59.48.32,1.07.79,1.56.25s-.19-1-.55-1.42c-1-1-2-2-3-2.94-6.3-5.81-13.16-11-19.47-16.77-12.27-11.28-26-20.52-41.53-26.65-5.93-2.33-12-4.21-17.89-6.78-2.29-1-4.75-1.68-7.14-2.5ZM96.62,144c.14,0,.35.07.43,0a12.79,12.79,0,0,0,1-1.08A247,247,0,0,1,118.7,121c5.81-5.36,11.31-11,17.78-15.62,1-.72,1.77-2,3.4-1.54.62.18.87-.47.78-1-.18-1.06.6-1.47,1.21-2,6.39-5.49,12.81-10.9,19.95-15.37a24.66,24.66,0,0,0,2.55-2c.32-.26.62-.65.28-1.06s-.78-.24-1.13,0c-1.54,1-3,2-4.58,3-8.45,5.39-17.27,10.08-24.92,16.85C125.31,110,116.7,117.84,108.38,126a156,156,0,0,0-22,26.75c-.56.87-1.68,1.65-1,3.48,3.88-3.9,7.93-7.16,9.51-12.46.3-1,.71-2.87,1.92-2.48s-.64,1.57-.35,2.52A1.27,1.27,0,0,0,96.62,144Zm517.2,18.71c-.87-3.08-1.48-5.65-3.33-7.81-2.16-2.52-4.19-5.16-6.22-7.78-4.72-6.1-9-12.61-14.47-18-6.58-6.52-13.82-12.37-20.8-18.47-1.75-1.52-3.62-2.91-5.46-4.32-.51-.38-1.28-.92-1.74-.28s.09,1.23.68,1.66a10.3,10.3,0,0,1,.94.81c6.81,5.92,13.9,11.53,20.37,17.83,10.41,10.11,19,21.71,27,33.76A5,5,0,0,0,613.82,162.73Zm23.59,34.87c0-.23,0-.67-.2-.85-1.91-1.81-2.13-4.47-3.41-6.61-3-5-5.19-10.4-8.47-15.23-.31-.47-.47-1.19-1.25-.8a1.12,1.12,0,0,0-.51,1.51h0c.48,1.23,1,2.47,1.55,3.66,3,6,6.53,11.72,9.14,17.92a3,3,0,0,0,1.19,1.56c.42.26.82.65,1.35.44.75-.28.56-1,.65-1.61Zm17.25,30.77a1.09,1.09,0,0,0-.09,1.42c2.9,6.54,4.72,13.46,7.1,20.18.34.95.56,2.64,1.8,2.3s.53-1.92.33-2.88A66.65,66.65,0,0,0,657,231c-.52-1-1-2.26-2.34-2.65Zm-50.3-85.21a32,32,0,0,0,7.5,9.65,31.64,31.64,0,0,0-7.46-9.65Zm65.91,160.68c-.62-.88.31-2.88-1.1-3s-1.36,1.78-1.5,2.9a1.71,1.71,0,0,0,1.35,2h.09c1.27.13,1.1-1,1.2-1.9ZM79.41,163.42A9.33,9.33,0,0,0,83,159.81c.32-.51.54-1.17-.06-1.54-.43-.26-1,.11-1.28.52A9.47,9.47,0,0,0,79.41,163.42Z" transform="translate(0.03 0.02)"/><path class="bd5ce0a1-dfb8-4dca-bed3-0d118247112a" d="M56.82,537.84c-4.21-3.89-7.29-8.58-10.2-13.42C41,515,36.68,504.9,31.82,495.08a316,316,0,0,1-17.14-43.29C5.57,423.66-.44,395,.43,365.25c.19-6.8-.27-13.63-.41-20.44a3.51,3.51,0,0,1,.8-2.9c.21,8.49,0,17,.61,25.44.62,8.64,1,17.28,1.91,25.9s3.06,16.86,5,25.2,4.06,16.82,6.48,25.14,5.09,16.53,8,24.67,6.16,16.17,9.64,24.09,7.37,15.48,11.51,23S52.52,530.34,56.82,537.84Z" transform="translate(0.03 0.02)"/><path class="bd5ce0a1-dfb8-4dca-bed3-0d118247112a" d="M41.24,503.37c2,.3,2.42,1.48,3,2.45,3.49,6,6.1,12.48,9.44,18.59a300.59,300.59,0,0,0,35.8,52.1A386,386,0,0,0,135.13,621a8.39,8.39,0,0,1,2,2.16c-23-17-44-36.06-60.95-59.35C62.49,545,51.82,524.51,41.24,503.37Z" transform="translate(0.03 0.02)"/><path class="bd5ce0a1-dfb8-4dca-bed3-0d118247112a" d="M604.52,112.17a9.65,9.65,0,0,1,5.3,3.34,360.47,360.47,0,0,1,38.36,48.86c3.15,4.78,6.12,9.67,9.31,14.42,1,1.54.36,3.23,1,4.79a67.15,67.15,0,0,1,3.26,9.68c-2.51-4.77-4.12-9.91-7.53-14.3s-5.59-9.59-8.5-14.32-6-9.39-9.17-13.95-6.42-8.89-9.84-13.18-7.18-8.51-10.77-12.76S607.93,117.16,604.52,112.17Z" transform="translate(0.03 0.02)"/><path class="bd5ce0a1-dfb8-4dca-bed3-0d118247112a" d="M361.34.06a313.54,313.54,0,0,1,35.6,1.64C408.82,2.81,420.31,6,431.55,10c-11.61-2.37-23-6.26-34.82-7.06S373.12,1.3,361.34.06Z" transform="translate(0.03 0.02)"/><path class="bd5ce0a1-dfb8-4dca-bed3-0d118247112a" d="M363.94,48.27c13.09-.8,25.55-.94,37.49,3.93-4.34.42-8.49-.7-12.65-1.62a20.84,20.84,0,0,0-4.16-.58c-5.89-.11-11.8.08-17.68-.53A4,4,0,0,1,363.94,48.27Z" transform="translate(0.03 0.02)"/><path class="bd5ce0a1-dfb8-4dca-bed3-0d118247112a" d="M282,7.35A115.47,115.47,0,0,1,329.29.18c-8.38.77-16.3,1.27-24.13,2.6S289.66,5.63,282,7.35Z" transform="translate(0.03 0.02)"/><path class="bd5ce0a1-dfb8-4dca-bed3-0d118247112a" d="M431.06,682.4a13.73,13.73,0,0,1,7.19-2.4c2.51,0,4.52-1.49,6.77-2.27,5-1.72,10-3.53,15-5.3.56-.2,1.31-.48,1.48.23.23.9-.69.65-1.19.75-5.65,1.12-10.87,3.43-16.07,5.77a40.68,40.68,0,0,1-7.42,2C435,681.69,433,682,431.06,682.4Z" transform="translate(0.03 0.02)"/><path class="bd5ce0a1-dfb8-4dca-bed3-0d118247112a" d="M134.33,614.36c-3-.71-13.82-10-15.9-13.73Z" transform="translate(0.03 0.02)"/><path class="bd5ce0a1-dfb8-4dca-bed3-0d118247112a" d="M398.89,689.41l26.17-6,.17.72-26.18,6Z" transform="translate(0.03 0.02)"/><path class="bd5ce0a1-dfb8-4dca-bed3-0d118247112a" d="M395.3,690.6a41.66,41.66,0,0,1-9.48,1.51A13,13,0,0,1,395.3,690.6Z" transform="translate(0.03 0.02)"/></g></g></g></svg>